<?xml version="1.0" encoding="utf-8"?>
<!-- Generator: Adobe Illustrator 15.0.0, SVG Export Plug-In . SVG Version: 6.00 Build 0)  -->
<!DOCTYPE svg PUBLIC "-//W3C//DTD SVG 1.1//EN" "http://www.w3.org/Graphics/SVG/1.1/DTD/svg11.dtd">
<svg version="1.1" id="Layer_1" xmlns="http://www.w3.org/2000/svg" xmlns:xlink="http://www.w3.org/1999/xlink" x="0px" y="0px"
	 width="100px" height="100px" viewBox="0 0 100 100" enable-background="new 0 0 100 100" xml:space="preserve" preserveAspectRatio="xMinYMin meet">
<path fill="#4C3A2B" d="M90,50c0-1.883-0.141-3.732-0.394-5.546l9.198-5.31c-1.679-7.579-5.075-14.511-9.761-20.366l-3.243-6.767
	l-1.998,1.154l-9.215,5.32c-2.903-2.27-6.124-4.148-9.588-5.555V2.292C60.265,0.805,55.227,0,50,0S39.735,0.805,35,2.292v10.637
	c-3.464,1.407-6.685,3.285-9.588,5.555l-9.215-5.32C8.79,19.965,3.448,28.973,1.195,39.144l9.198,5.31
	C10.141,46.268,10,48.118,10,50c0,1.883,0.141,3.732,0.394,5.547l-9.198,5.31c2.254,10.171,7.595,19.179,15.003,25.98l9.215-5.32
	c2.903,2.27,6.124,4.147,9.587,5.554v10.638C39.735,99.195,44.773,100,50,100s10.265-0.805,15-2.292V87.07
	c3.463-1.406,6.685-3.284,9.587-5.554l9.215,5.319c7.408-6.801,12.749-15.808,15.002-25.979l-9.197-5.311
	C89.859,53.732,90,51.883,90,50z M60,50c0,5.522-4.478,10-10,10s-10-4.478-10-10c0-5.523,4.478-10,10-10S60,44.477,60,50z"/>
</svg>
